<svg width="27" height="29" viewBox="0 0 27 29" fill="none" xmlns="http://www.w3.org/2000/svg">
<path d="M22.8159 12.372L21.3137 7.69178C21.0958 7.01036 20.6767 6.4176 20.1159 5.9977C19.5551 5.57781 18.8811 5.35215 18.1898 5.35279H15.3798V3.07196H10.9876V5.35279H8.17766C7.48631 5.35215 6.81235 5.57781 6.25154 5.9977C5.69073 6.4176 5.27159 7.01036 5.05368 7.69178L3.55154 12.372C3.15209 12.5456 2.81097 12.838 2.57105 13.2124C2.33113 13.5867 2.20312 14.0264 2.20313 14.4761V20.1782C2.20313 21.0198 2.64674 21.7474 3.30118 22.1431V24.7399C3.30118 25.0423 3.41687 25.3324 3.6228 25.5462C3.82872 25.7601 4.10802 25.8803 4.39924 25.8803H5.4973C5.78852 25.8803 6.06782 25.7601 6.27374 25.5462C6.47967 25.3324 6.59536 25.0423 6.59536 24.7399V22.459H19.7721V24.7399C19.7721 25.0423 19.8877 25.3324 20.0937 25.5462C20.2996 25.7601 20.5789 25.8803 20.8701 25.8803H21.9682C22.2594 25.8803 22.5387 25.7601 22.7446 25.5462C22.9505 25.3324 23.0662 25.0423 23.0662 24.7399V22.1431C23.3994 21.9447 23.6763 21.6586 23.8691 21.3136C24.0618 20.9687 24.1637 20.577 24.1643 20.1782V14.4761C24.1643 14.0264 24.0363 13.5867 23.7964 13.2124C23.5565 12.838 23.2153 12.5456 22.8159 12.372ZM8.17766 7.63362H18.1887C18.6619 7.63362 19.0814 7.9461 19.2307 8.41367L20.4452 12.1953H5.92225L7.1356 8.41367C7.20846 8.18649 7.34832 7.98889 7.53535 7.84888C7.72239 7.70888 7.94711 7.63356 8.17766 7.63362ZM6.04633 19.0378C5.82996 19.0377 5.61572 18.9934 5.41585 18.9073C5.21598 18.8212 5.03438 18.6951 4.88144 18.5362C4.72849 18.3772 4.60719 18.1885 4.52445 17.9809C4.44172 17.7733 4.39917 17.5507 4.39924 17.326C4.39931 17.1013 4.442 16.8788 4.52487 16.6712C4.60774 16.4636 4.72916 16.275 4.88221 16.1162C5.03526 15.9573 5.21693 15.8314 5.41686 15.7454C5.61679 15.6595 5.83106 15.6153 6.04743 15.6154C6.48441 15.6155 6.90343 15.796 7.21232 16.117C7.52121 16.438 7.69466 16.8733 7.69452 17.3272C7.69437 17.781 7.52064 18.2162 7.21155 18.537C6.90245 18.8578 6.48331 19.0379 6.04633 19.0378ZM20.3211 19.0378C20.1047 19.0377 19.8905 18.9934 19.6906 18.9073C19.4907 18.8212 19.3091 18.6951 19.1562 18.5362C19.0032 18.3772 18.8819 18.1885 18.7992 17.9809C18.7165 17.7733 18.6739 17.5507 18.674 17.326C18.6741 17.1013 18.7168 16.8788 18.7996 16.6712C18.8825 16.4636 19.0039 16.275 19.157 16.1162C19.31 15.9573 19.4917 15.8314 19.6916 15.7454C19.8916 15.6595 20.1058 15.6153 20.3222 15.6154C20.7592 15.6155 21.1782 15.796 21.4871 16.117C21.796 16.438 21.9694 16.8733 21.9693 17.3272C21.9691 17.781 21.7954 18.2162 21.4863 18.537C21.1772 18.8578 20.7581 19.0379 20.3211 19.0378Z" fill="white"/>
</svg>
